<svg width="68.000000" height="68.000000" viewBox="0 0 68 68" fill="none" xmlns="http://www.w3.org/2000/svg" xmlns:xlink="http://www.w3.org/1999/xlink">
	<desc>
			Created with Pixso.
	</desc>
	<defs>
		<clipPath id="clip2_6547">
			<rect width="68.000000" height="68.000000" fill="white" fill-opacity="0"/>
		</clipPath>
	</defs>
	<rect width="68.000000" height="68.000000" fill="#FFFFFF" fill-opacity="0"/>
	<rect width="68.000000" height="68.000000" fill="#FFFFFF" fill-opacity="0"/>
	<rect width="68.000000" height="68.000000" fill="#FFFFFF" fill-opacity="0"/>
	<rect width="68.000000" height="68.000000" fill="#FFFFFF" fill-opacity="0"/>
	<rect width="68.000000" height="68.000000" fill="#FFFFFF" fill-opacity="0"/>
	<g clip-path="url(#clip2_6547)">
		<path d="M63.27 7L4.72 7C3.73 7 2.79 7.39 2.09 8.1C1.39 8.81 1 9.77 1 10.77L1 48.58C1 49.58 1.39 50.54 2.09 51.25C2.79 51.96 3.73 52.35 4.72 52.35L26.04 52.35L24.76 55.6L19.09 55.6C18.81 55.6 18.54 55.71 18.34 55.91C18.14 56.11 18.03 56.39 18.03 56.68L18.03 58.83L11.64 58.83C11.36 58.83 11.09 58.95 10.89 59.15C10.69 59.35 10.58 59.63 10.58 59.91C10.58 60.2 10.69 60.48 10.89 60.68C11.09 60.88 11.36 61 11.64 61L56.35 61C56.63 61 56.9 60.88 57.1 60.68C57.3 60.48 57.41 60.2 57.41 59.91C57.41 59.63 57.3 59.35 57.1 59.15C56.9 58.95 56.63 58.83 56.35 58.83L49.96 58.83L49.96 56.68C49.96 56.39 49.85 56.11 49.65 55.91C49.45 55.71 49.18 55.6 48.9 55.6L43.23 55.6L41.96 52.35L63.27 52.35C64.26 52.35 65.2 51.96 65.9 51.25C66.6 50.54 66.99 49.58 67 48.58L67 10.77C66.99 9.77 66.6 8.81 65.9 8.1C65.2 7.39 64.26 7 63.27 7ZM47.83 57.75L47.83 58.83L20.16 58.83L20.16 57.75L47.83 57.75ZM27.05 55.6L28.33 52.35L39.66 52.35L40.94 55.6L27.05 55.6ZM64.87 48.58C64.87 49 64.7 49.42 64.4 49.72C64.1 50.02 63.69 50.19 63.27 50.2L4.72 50.2C4.3 50.19 3.89 50.02 3.59 49.72C3.29 49.42 3.12 49 3.12 48.58L3.12 45.87L64.87 45.87L64.87 48.58ZM64.87 43.72L3.12 43.72L3.12 10.77C3.12 10.35 3.29 9.93 3.59 9.63C3.89 9.33 4.3 9.16 4.72 9.16L63.27 9.16C63.69 9.16 64.1 9.33 64.4 9.63C64.7 9.93 64.87 10.35 64.87 10.77L64.87 43.72Z" fill="#FFB400" fill-opacity="1.000000" fill-rule="nonzero"/>
		<path d="M29.16 34.88C29.28 34.96 29.41 35.01 29.55 35.04C29.68 35.06 29.82 35.06 29.96 35.04C30.1 35.01 30.23 34.95 30.34 34.87C30.46 34.79 30.56 34.69 30.63 34.58L39 21.83C39.16 21.59 39.21 21.3 39.15 21.03C39.1 20.75 38.93 20.51 38.7 20.36C38.46 20.2 38.17 20.15 37.9 20.2C37.62 20.26 37.38 20.43 37.22 20.66L28.86 33.41C28.78 33.53 28.73 33.66 28.7 33.8C28.68 33.93 28.68 34.07 28.7 34.21C28.73 34.35 28.79 34.48 28.87 34.59C28.94 34.71 29.05 34.81 29.16 34.88Z" fill="#FFB400" fill-opacity="1.000000" fill-rule="nonzero"/>
		<path d="M40.75 34.81C40.97 34.99 41.25 35.08 41.53 35.05C41.81 35.03 42.07 34.89 42.25 34.67L47.56 28.3C47.72 28.11 47.81 27.87 47.81 27.62C47.81 27.37 47.72 27.13 47.56 26.94L42.25 20.56C42.16 20.46 42.05 20.37 41.93 20.3C41.8 20.24 41.67 20.2 41.53 20.18C41.39 20.17 41.25 20.18 41.11 20.23C40.98 20.27 40.86 20.33 40.75 20.42C40.64 20.51 40.55 20.62 40.49 20.75C40.42 20.87 40.38 21.01 40.37 21.15C40.36 21.29 40.37 21.43 40.42 21.56C40.46 21.69 40.53 21.82 40.62 21.92L45.36 27.62L40.62 33.31C40.44 33.53 40.35 33.81 40.37 34.09C40.4 34.37 40.54 34.63 40.75 34.81Z" fill="#FFB400" fill-opacity="1.000000" fill-rule="nonzero"/>
		<path d="M25.74 34.67C25.83 34.78 25.94 34.87 26.06 34.94C26.19 35 26.32 35.04 26.46 35.06C26.6 35.07 26.74 35.06 26.88 35.01C27.01 34.97 27.13 34.91 27.24 34.82C27.35 34.73 27.44 34.62 27.5 34.49C27.57 34.37 27.61 34.23 27.62 34.09C27.63 33.95 27.62 33.81 27.57 33.68C27.53 33.55 27.46 33.42 27.37 33.31L22.63 27.62L27.37 21.92C27.46 21.82 27.53 21.69 27.57 21.56C27.62 21.43 27.63 21.29 27.62 21.15C27.61 21.01 27.57 20.87 27.5 20.75C27.44 20.62 27.35 20.51 27.24 20.42C27.13 20.33 27.01 20.27 26.88 20.23C26.74 20.18 26.6 20.17 26.46 20.18C26.32 20.2 26.19 20.24 26.06 20.3C25.94 20.37 25.83 20.46 25.74 20.56L20.43 26.94C20.27 27.13 20.18 27.37 20.18 27.62C20.18 27.87 20.27 28.11 20.43 28.3L25.74 34.67Z" fill="#FFB400" fill-opacity="1.000000" fill-rule="nonzero"/>
	</g>
</svg>
